#!OML:ASF E:/inclinewalkrobotboard/Project1/Captureday1/Session1/subject1.ASF
:FULLY-SPECIFIED
:DEGREES
251
root 0 0 0 76.31431129763783 -27.425749406553606 -45.45464898237639
lowerback -11.190197256802971 7.863072597272996 9.566329340701737
upperback -20.513872700603677 10.074280891866028 2.957138084334476
thorax -15.451844030241297 3.9701389974906887 -1.71334137587528
lowerneck -7.547964687753764 9.771075024025516 5.411949225590958
upperneck 11.715859393305207 11.67846066331369 7.287570933676314
head 4.807600362270635 6.266571148671346 2.0769105962260417
rclavicle 6.094439235005957E-15 -3.3936275732922727E-15
rhumerus 108.56198929721872 -24.884667244211695 -115.09712388775621
rradius 0.7834055799321682
rwrist 69.65321385184916
rhand 13.78500611571075 -12.625405762429454
rfingers 7.125020000000017
rthumb 38.77846179372084 -38.507231688455015
lclavicle -6.661384508638412E-16 1.5390514115350819E-15
lhumerus -0.2228478695040561 25.046798746505225 1.8049198396462955
lradius 9.237863070506023
lwrist -41.49220595036149
lhand 12.076055673133732 36.71266815880785
lfingers 7.125020000000047
lthumb 37.184838984589575 63.81087072683283
rfemur 183.0423464363904 -219.77971113944926 -192.09887065599804
rtibia 67.29293352123891
rfoot -23.168344779230665 -9.817768954112013
rtoes 49.935654740312316
lfemur -109.58404692819698 35.778541938914124 -24.21244854368306
ltibia 68.33492103224481
lfoot -38.19851298188635 35.57080196298
ltoes 38.866550404057676
252
root 0 0 0 76.31431686458474 -27.425739434829303 -45.45466882581328
lowerback -11.190186809286086 7.863074329112848 9.566339032794156
upperback -20.513871347386942 10.074283314775434 2.9571386235831585
thorax -15.45184775707922 3.9701391903743 -1.7133464710516897
lowerneck -7.547968262288043 9.771076033276454 5.411948463924942
upperneck 11.71584948526363 11.678462280604153 7.287571733671394
head 4.807597678113062 6.266571908351752 2.0769108906632936
rclavicle 6.094492554426805E-15 -3.3937173012020094E-15
rhumerus 108.56443383950062 -24.885311707787395 -115.09952901908103
rradius 0.7830956587231483
rwrist 69.65429126196923
rhand 13.783931363446772 -12.624943135153286
rfingers 7.125020000000017
rthumb 38.777448777830756 -38.506978466373845
lclavicle -6.661915140107808E-16 1.5390712124896237E-15
lhumerus -0.22240368766375873 25.046712483993872 1.8047202281802512
lradius 9.23789433928204
lwrist -41.492129422689345
lhand 12.076138963560442 36.71273874266762
lfingers 7.125020000000047
lthumb 37.18491818950252 63.81092761021397
rfemur 183.042303893713 -219.78007886925764 -192.09926662007732
rtibia 67.29241640963386
rfoot -23.170111947456952 -9.816832078850076
rtoes 49.936095569046245
lfemur -109.58449664823578 35.77862706396484 -24.212566255356926
ltibia 68.33552744840506
lfoot -38.19804882566514 35.57076999636214
ltoes 38.866380326827105
253
root 0 0 0 76.31432135423731 -27.425732401232 -45.454687750712125
lowerback -11.190174905379878 7.863076099952618 9.566347835944573
upperback -20.5138689425997 10.074285736639862 2.9571382774382884
thorax -15.451851208809286 3.970139412545299 -1.7133520736551011
lowerneck -7.547973480857154 9.771077102216887 5.411947886274818
upperneck 11.715839033210566 11.678463934856962 7.287572249774014
head 4.807595041905197 6.266572706995976 2.07691113171282
rclavicle 6.094530585163711E-15 -3.3938112536184273E-15
rhumerus 108.56688144302734 -24.885961955912094 -115.10185128258063
rradius 0.7828190364749581
rwrist 69.655314499279
rhand 13.782873849664544 -12.624489750552994
rfingers 7.125020000000017
rthumb 38.77645180968621 -38.50673119255959
lclavicle -6.66249934572072E-16 1.539080607080746E-15
lhumerus -0.22195731853508072 25.04664041194905 1.8045335276116603
lradius 9.23792311747708
lwrist -41.49205596406913
lhand 12.076204668836025 36.712802351631645
lfingers 7.125020000000047
lthumb 37.18498057944975 63.81098015179174
rfemur 183.04229513708844 -219.78041031784346 -192.09962361253045
rtibia 67.29197488701035
rfoot -23.17161629858136 -9.815999570299343
rtoes 49.936469230574936
lfemur -109.58486316099356 35.77869936461408 -24.212654232641242
ltibia 68.33602732607191
lfoot -38.19767846264243 35.57073763609427
ltoes 38.86623662322299
254
root 0 0 0 76.31432493122058 -27.4257277874268 -45.45470576352079
lowerback -11.19016192615383 7.863077886362127 9.566355840501535
upperback -20.513865710494464 10.074288135667876 2.957137219090421
thorax -15.451854411219285 3.9701396563390414 -1.7133580351034352
lowerneck -7.547979980345829 9.771078210898018 5.411947461786869
upperneck 11.715828226386545 11.6784656067678 7.287572531687829
head 4.807592464562538 6.266573530922746 2.0769113274632827
rclavicle 6.0945557987616155E-15 -3.393907831328574E-15
rhumerus 108.56930968272873 -24.886611113890705 -115.1040854912005
rradius 0.7825719176021764
rwrist 69.65628462721695
rhand 13.781839773574955 -12.624047920676537
rfingers 7.125020000000017
rthumb 38.775476771920644 -38.506490959234576
lclavicle -6.663122636885606E-16 1.5390813943448093E-15
lhumerus -0.22151289806106256 25.046580511419208 1.804358878651371
lradius 9.237949630181834
lwrist -41.49198563118014
lhand 12.076255533881865 36.7128597345002
lfingers 7.125020000000047
lthumb 37.18502878292108 63.81102870010318
rfemur 183.04231387402393 -219.78070925902276 -192.09994571617682
rtibia 67.29159877132568
rfoot -23.17289340577434 -9.815259484772438
rtoes 49.936785072779635
lfemur -109.58515878761183 35.77876059380168 -24.21271725086216
ltibia 68.33643619050355
lfoot -38.1973876173268 35.570705230215786
ltoes 38.86611562256204
255
root 0 0 0 76.31432773570859 -27.425725164290732 -45.45472287546537
lowerback -11.190148189898162 7.863079669269059 9.566363125526966
upperback -20.51386183794243 10.074290494470903 2.9571355935604724
thorax -15.45185738512044 3.970139915431469 -1.7133642330040901
lowerneck -7.547987458272553 9.77107934228893 5.411947164689392
upperneck 11.715817224613678 11.678467279267837 7.287572621247315
head 4.807589956152591 6.266574368373438 2.076911484742804
rclavicle 6.094570329986964E-15 -3.3940056980121692E-15
rhumerus 108.57170050597033 -24.887253602224213 -115.10622819044394
rradius 0.7823509658973933
rwrist 69.65720296560518
rhand 13.78083397275681 -12.623619425610512
rfingers 7.125020000000017
rthumb 38.77452825772837 -38.50625859363966
lclavicle -6.66377266015097E-16 1.5390751377540365E-15
lhumerus -0.2210738669497232 25.046531061669715 1.8041955358474198
lradius 9.23797406239586
lwrist -41.49191845879267
lhand 12.076293894708838 36.712911542818226
lfingers 7.125020000000047
lthumb 37.185065036792246 63.811073566299925
rfemur 183.04235476399896 -219.78097906555254 -192.10023656269806
rtibia 67.29127921064782
rfoot -23.17397423442805 -9.814601255759909
rtoes 49.9370511615785
lfemur -109.58539416633806 35.77881227406162 -24.212759421051306
ltibia 68.33676746865372
lfoot -38.197163992753694 35.5706730663456
ltoes 38.866014140164864
256
root 0 0 0 76.31432988752314 -27.425724174190613 -45.45473910246942
lowerback -11.190133961510039 7.8630814332768395 9.566369760840741
upperback -20.51385748081156 10.07429279935755 2.9571335224881787
thorax -15.451860147937882 3.970140184604549 -1.7133705667692034
lowerneck -7.547995662596591 9.771080482068458 5.411946973339644
upperneck 11.71580616139461 11.67846893771513 7.2875725537875695
head 4.807587525351499 6.2665752094177805 2.0769116093577233
rclavicle 6.094576019081161E-15 -3.3941037475933406E-15
rhumerus 108.57403956779964 -24.887884940644152 -115.10827737029872
rradius 0.7821532456069171
rwrist 69.65807103217799
rhand 13.779860134685343 -12.623205596632074
rfingers 7.125020000000017
rthumb 38.77360977107322 -38.506034699701786
lclavicle -6.664438959332905E-16 1.5390631877102916E-15
lhumerus -0.22064304282036318 25.046490581315496 1.8040428278675122
lradius 9.237996574801198
lwrist -41.49185445598914
lhand 12.076321747473033 36.712958350053114
lfingers 7.125020000000047
lthumb 37.185091252376104 63.81111503269476
rfemur 183.04241328073493 -219.781222751202 -192.10049938612613
rtibia 67.29100850554984
rfoot -23.17488573615147 -9.814015533933887
rtoes 49.93727446582367
lfemur -109.58557847718996 35.77885572809756 -24.21278427424371
ltibia 68.33703276258444
lfoot -38.19699700212981 35.57064137893397
ltoes 38.865929415015835
257
root 0 0 0 76.31433148937933 -27.42572451722925 -45.454754464738336
lowerback -11.190119460423954 7.863083166086483 9.566375808549939
upperback -20.513852769122146 10.074295039734706 2.957131107989731
thorax -15.451862714809725 3.9701404595588308 -1.713376954016728
lowerneck -7.548004383433706 9.771081618375032 5.411946869471823
upperneck 11.715795146909551 11.678470569899398 7.2875723592291966
head 4.807585179176088 6.266576045813608 2.0769117062750126
rclavicle 6.094574448540371E-15 -3.3942010742699183E-15
rhumerus 108.57631566223378 -24.888501581617334 -115.11023221844711
rradius 0.7819761698083276
rwrist 69.65889049548167
rhand 13.778920977726479 -12.622807387497934
rfingers 7.125020000000017
rthumb 38.7727238980183 -38.505819693875296
lclavicle -6.665112761396829E-16 1.5390467035528757E-15
lhumerus -0.22022268903996256 25.04645778662931 1.803900132855773
lradius 9.238017312683017
lwrist -41.49179360608346
lhand 12.076340802437466 36.713000665118635
lfingers 7.125020000000047
lthumb 37.18510906706788 63.81115335818822
rfemur 183.0424855950473 -219.78144300810663 -192.10073706881337
rtibia 67.29077995809507
rfoot -23.1756513600478 -9.813494047897768
rtoes 49.937461012895135
lfemur -109.58571963566848 35.77889210487612 -24.212794836414915
ltibia 68.33724208738323
lfoot -38.196877538342406 35.57061035622966
ltoes 38.86585905524074
258
root 0 0 0 76.31433262947861 -27.42572594067609 -45.45476898615279
lowerback -11.190104867337691 7.863084858007323 9.566381324199373
upperback -20.51384781121603 10.074297207601074 2.9571284357708842
thorax -15.451865099304428 3.970140736762877 -1.7133833276188497
lowerneck -7.54801344631769 9.771082741535523 5.411946837608757
upperneck 11.715784270884003 11.678472165915059 7.2875720629408605
head 4.807582922923077 6.266576870838805 2.076911779761933
rclavicle 6.094566975447397E-15 -3.394296945281314E-15
rhumerus 108.57852023467751 -24.88910076798983 -115.11209290823652
rradius 0.7818174557495574
rwrist 69.65966313565227
rhand 13.778018406555184 -12.622425435752715
rfingers 7.125020000000017
rthumb 38.77187245385391 -38.505613836030605
lclavicle -6.665786779040115E-16 1.5390266748123778E-15
lhumerus -0.2198145810846608 25.04643156119668 1.8037668642411546
lradius 9.23803641057254
lwrist -41.49173586875659
lhand 12.076352526815668 36.71303894207644
lfingers 7.125020000000047
lthumb 37.18511988537328 63.8111887816876
rfemur 183.04256847513068 -219.78164224037425 -192.10095218134978
rtibia 67.29058774252168
rfoot -23.176291495746153 -9.81302948158904
rtoes 49.93761601964961
lfemur -109.58582446024468 35.77892240206421 -24.212793694790843
ltibia 68.33740407869405
lfoot -38.19679777548251 35.570580146702866
ltoes 38.865800990364875
